<svg width="79" height="79" viewBox="0 0 79 79" fill="none" xmlns="http://www.w3.org/2000/svg">
<path d="M60.4844 0H18.5156C8.28973 0 0 8.28973 0 18.5156V60.4844C0 70.7103 8.28973 79 18.5156 79H60.4844C70.7103 79 79 70.7103 79 60.4844V18.5156C79 8.28973 70.7103 0 60.4844 0Z" fill="#242938"/>
<path d="M10.5693 18.8628L39.2917 8.64062L68.7701 18.7045L64.006 56.6887L39.2917 70.3594L14.9785 56.8661L10.5693 18.8628Z" fill="#E23237"/>
<path d="M68.7701 18.7048L39.2917 8.64062V70.3594L64.0061 56.6887L68.7701 18.7048Z" fill="#B52E31"/>
<path d="M39.3361 15.854L21.4377 55.6626L28.1169 55.5274L31.7234 46.5322H47.7317L51.6509 55.5972L58.0193 55.732L39.3361 15.854ZM39.3803 28.6335L45.4364 41.2803H34.0996L39.3979 28.6335H39.3803Z" fill="white"/>
</svg>
