<svg width="79" height="79" viewBox="0 0 79 79" fill="none" xmlns="http://www.w3.org/2000/svg">
<path d="M60.4844 0H18.5156C8.28973 0 0 8.28973 0 18.5156V60.4844C0 70.7103 8.28973 79 18.5156 79H60.4844C70.7103 79 79 70.7103 79 60.4844V18.5156C79 8.28973 70.7103 0 60.4844 0Z" fill="#0277BD"/>
<path d="M16.5878 31.6775L17.471 41.5346H39.5296V31.6775H16.5878ZM39.5293 11.7266H14.8125L15.7087 21.5837H39.5293V11.7266ZM39.5293 67.533V57.2775L39.4861 57.2889L28.5082 54.3248L27.8065 46.4631H17.9114L19.2924 61.9403L39.484 67.5456L39.5293 67.533Z" fill="#EBEBEB"/>
<path d="M51.6333 41.5346L50.489 54.3184L39.4954 57.2858V67.5407L59.703 61.9403L59.8511 60.2748L62.1674 34.3246L62.4078 31.6775L64.1875 11.7266H39.4954V21.5837H53.3849L52.4881 31.6775H39.4954V41.5346H51.6333Z" fill="white"/>
</svg>
