<svg width="38" height="38" viewBox="0 0 38 38" fill="none" xmlns="http://www.w3.org/2000/svg">
<path d="M34.4375 0.89064H3.5625C2.86197 0.883511 2.18722 1.15458 1.68631 1.64436C1.18539 2.13414 0.899238 2.80262 0.890625 3.50314V34.5028C0.900795 35.2023 1.18764 35.8693 1.68838 36.3578C2.18912 36.8463 2.86298 37.1165 3.5625 37.1094H34.4375C35.1381 37.1149 35.8124 36.843 36.313 36.3529C36.8137 35.8628 37.1 35.1945 37.1094 34.4939V3.49423C37.0969 2.79577 36.8092 2.13047 36.3089 1.64294C35.8086 1.15541 35.1361 0.885052 34.4375 0.89064ZM11.6286 31.7656H6.25219V14.4667H11.6286V31.7656ZM8.95672 12.1095C8.34007 12.1101 7.7371 11.9278 7.22409 11.5856C6.71108 11.2435 6.31108 10.7569 6.0747 10.1873C5.83831 9.61777 5.77615 8.99092 5.8961 8.38605C6.01604 7.78118 6.31269 7.22547 6.74852 6.78923C7.18434 6.35298 7.73977 6.0558 8.34452 5.93529C8.94928 5.81477 9.57619 5.87633 10.146 6.11217C10.7157 6.34802 11.2027 6.74755 11.5454 7.26023C11.888 7.77292 12.0709 8.37571 12.0709 8.99236C12.0702 9.40222 11.9886 9.80789 11.8308 10.1862C11.6731 10.5645 11.4423 10.9079 11.1516 11.1969C10.861 11.4859 10.5162 11.7147 10.137 11.8703C9.75787 12.0259 9.35173 12.1052 8.94188 12.1036L8.95672 12.1095ZM31.7656 31.7656H26.3892V23.3492C26.3892 21.3453 26.3536 18.7655 23.5956 18.7655C20.8377 18.7655 20.3686 20.9505 20.3686 23.2186V31.7656H15.0011V14.4667H20.1548V16.8417H20.2261C20.9445 15.482 22.6961 14.0481 25.3116 14.0481C30.7563 14.0363 31.7656 17.6195 31.7656 22.2656V31.7656Z" fill="black"/>
</svg>
