<svg width="79" height="79" viewBox="0 0 79 79" fill="none" xmlns="http://www.w3.org/2000/svg">
<g clip-path="url(#clip0_111_105)">
<path d="M60.4844 0H18.5156C8.28973 0 0 8.28973 0 18.5156V60.4844C0 70.7103 8.28973 79 18.5156 79H60.4844C70.7103 79 79 70.7103 79 60.4844V18.5156C79 8.28973 70.7103 0 60.4844 0Z" fill="#242938"/>
<mask id="mask0_111_105" style="mask-type:luminance" maskUnits="userSpaceOnUse" x="18" y="8" width="42" height="63">
<path d="M18.8242 8.64062H59.9783V70.3594H18.8242V8.64062Z" fill="white"/>
</mask>
<g mask="url(#mask0_111_105)">
<path d="M29.1149 70.3594C34.793 70.3594 39.4012 65.7512 39.4012 60.073V49.7864H29.1149C23.4368 49.7864 18.8282 54.3949 18.8282 60.073C18.8282 65.7512 23.4368 70.3594 29.1149 70.3594Z" fill="#0ACF83"/>
<path d="M18.8282 39.5C18.8282 33.8219 23.4368 29.2136 29.1149 29.2136H39.4012V49.7863H29.1149C23.4368 49.7863 18.8282 45.1781 18.8282 39.5Z" fill="#A259FF"/>
<path d="M18.8264 18.927C18.8264 13.2489 23.435 8.64062 29.1131 8.64062H39.3995V29.2136H29.1131C23.435 29.2136 18.8264 24.6051 18.8264 18.927Z" fill="#F24E1E"/>
<path d="M39.4012 8.64062H49.6876C55.3657 8.64062 59.9743 13.2489 59.9743 18.927C59.9743 24.6051 55.3657 29.2136 49.6876 29.2136H39.4012V8.64062Z" fill="#FF7262"/>
<path d="M59.9743 39.5C59.9743 45.1781 55.3657 49.7863 49.6876 49.7863C44.0095 49.7863 39.4012 45.1781 39.4012 39.5C39.4012 33.8219 44.0095 29.2136 49.6876 29.2136C55.3657 29.2136 59.9743 33.8219 59.9743 39.5Z" fill="#1ABCFE"/>
</g>
</g>
<defs>
<clipPath id="clip0_111_105">
<rect width="79" height="79" fill="white"/>
</clipPath>
</defs>
</svg>
