<svg width="79" height="79" viewBox="0 0 79 79" fill="none" xmlns="http://www.w3.org/2000/svg">
<g clip-path="url(#clip0_111_101)">
<path d="M60.4844 0H18.5156C8.28973 0 0 8.28973 0 18.5156V60.4844C0 70.7103 8.28973 79 18.5156 79H60.4844C70.7103 79 79 70.7103 79 60.4844V18.5156C79 8.28973 70.7103 0 60.4844 0Z" fill="#242938"/>
<path d="M39.5003 9.25781C22.4591 9.25781 8.64062 23.0736 8.64062 40.1175C8.64062 53.7521 17.4828 65.3194 29.7444 69.4C31.2865 69.6857 31.8527 68.7306 31.8527 67.9156C31.8527 67.1796 31.824 64.7488 31.8108 62.1702C23.2257 64.0369 21.4142 58.5291 21.4142 58.5291C20.0101 54.9621 17.9876 54.0138 17.9876 54.0138C15.1878 52.0984 18.1987 52.1379 18.1987 52.1379C21.2976 52.3554 22.9294 55.3179 22.9294 55.3179C25.6818 60.0357 30.1487 58.6717 31.9095 57.8833C32.1866 55.8885 32.9862 54.5273 33.8688 53.7567C27.0146 52.9763 19.8093 50.3301 19.8093 38.5057C19.8093 35.1365 21.0146 32.3835 22.9887 30.2224C22.6681 29.4451 21.6117 26.3064 23.2874 22.0558C23.2874 22.0558 25.879 21.2266 31.7762 25.2189C34.2379 24.5354 36.8776 24.1925 39.5003 24.1808C42.1227 24.1925 44.7649 24.5354 47.2309 25.2192C53.121 21.2263 55.7089 22.0561 55.7089 22.0561C57.3886 26.3064 56.3319 29.4454 56.0113 30.2224C57.99 32.3835 59.1874 35.1365 59.1874 38.5057C59.1874 50.3585 51.9681 52.9683 45.0963 53.732C46.2033 54.6899 47.1895 56.5677 47.1895 59.4469C47.1895 63.5759 47.1537 66.8991 47.1537 67.9156C47.1537 68.7368 47.7092 69.699 49.2735 69.396C61.5284 65.3108 70.3594 53.7475 70.3594 40.1175C70.3594 23.0739 56.5427 9.25781 39.5003 9.25781ZM20.1987 53.2179C20.1308 53.3713 19.8895 53.4173 19.6698 53.312C19.4457 53.2114 19.3201 53.0022 19.3926 52.8485C19.459 52.6905 19.7009 52.6467 19.924 52.7526C20.1484 52.8532 20.2762 53.0643 20.1987 53.2179ZM21.7167 54.5723C21.5695 54.7091 21.2816 54.6455 21.0865 54.4298C20.8847 54.2147 20.8467 53.9271 20.9961 53.7885C21.1476 53.6521 21.4269 53.716 21.629 53.9311C21.8308 54.149 21.8703 54.4344 21.7167 54.5723ZM22.7579 56.3054C22.5687 56.4369 22.2595 56.3137 22.0685 56.0391C21.8793 55.7648 21.8793 55.4358 22.0725 55.3037C22.2641 55.1719 22.5687 55.2904 22.7625 55.5629C22.951 55.8419 22.951 56.1712 22.7579 56.3054ZM24.519 58.3125C24.3499 58.4989 23.9898 58.4489 23.7259 58.1943C23.4562 57.9456 23.3809 57.5926 23.5506 57.4059C23.7219 57.2188 24.0842 57.2716 24.3499 57.524C24.6178 57.7722 24.6995 58.128 24.519 58.3125ZM26.7952 58.9899C26.7205 59.2318 26.3737 59.3417 26.024 59.2389C25.6753 59.1331 25.4466 58.8501 25.5173 58.6057C25.5898 58.3625 25.9382 58.248 26.2903 58.3579C26.639 58.4631 26.8677 58.7442 26.7952 58.9899ZM29.3855 59.2775C29.3942 59.5318 29.0979 59.7428 28.731 59.7475C28.3619 59.7558 28.0635 59.5497 28.0595 59.2994C28.0595 59.0423 28.3493 58.8334 28.718 58.8272C29.0853 58.8201 29.3855 59.0244 29.3855 59.2775ZM31.9302 59.18C31.9743 59.4281 31.7194 59.6833 31.355 59.7512C30.9967 59.8166 30.665 59.6632 30.6196 59.417C30.5752 59.1624 30.8347 58.9075 31.1923 58.8414C31.5574 58.7782 31.8839 58.9275 31.9302 59.18Z" fill="white"/>
</g>
<defs>
<clipPath id="clip0_111_101">
<rect width="79" height="79" fill="white"/>
</clipPath>
</defs>
</svg>
