<svg width="79" height="79" viewBox="0 0 79 79" fill="none" xmlns="http://www.w3.org/2000/svg">
<g clip-path="url(#clip0_111_73)">
<path d="M60.4844 0H18.5156C8.28973 0 0 8.28973 0 18.5156V60.4844C0 70.7103 8.28973 79 18.5156 79H60.4844C70.7103 79 79 70.7103 79 60.4844V18.5156C79 8.28973 70.7103 0 60.4844 0Z" fill="#F4F2ED"/>
<path d="M37.479 8.65727C37.3463 8.6693 36.9239 8.71158 36.5437 8.74152C27.7778 9.53182 19.5667 14.2619 14.366 21.5318C11.4704 25.5741 9.61794 30.1591 8.91836 35.0161C8.67117 36.7115 8.64093 37.2124 8.64093 39.5108C8.64093 41.8095 8.67117 42.3103 8.91866 44.0054C10.5956 55.595 18.843 65.3326 30.0283 68.9404C32.0314 69.586 34.1428 70.0264 36.544 70.2917C37.4793 70.3942 41.5213 70.3942 42.4566 70.2917C46.6014 69.8332 50.1125 68.8077 53.5756 67.0398C54.1064 66.7685 54.2091 66.696 54.1366 66.6358C54.0885 66.5994 51.8259 63.5647 49.1112 59.8968L44.1761 53.2302L37.9919 44.078C34.5893 39.0463 31.7901 34.9315 31.7657 34.9315C31.7416 34.9257 31.7176 38.992 31.7055 43.9573C31.6873 52.651 31.6815 53.0009 31.5728 53.2058C31.4161 53.5015 31.2954 53.6221 31.0418 53.7551C30.8489 53.8514 30.6798 53.8696 29.7688 53.8696H28.7251L28.4474 53.6947C28.2754 53.587 28.1358 53.4348 28.0431 53.2543L27.9166 52.9827L27.929 40.8865L27.9469 28.7841L28.1339 28.5486C28.2305 28.4221 28.4357 28.2591 28.5804 28.1808C28.8276 28.0601 28.9242 28.0481 29.9678 28.0481C31.1988 28.0481 31.4037 28.0962 31.7237 28.4461C31.8142 28.5427 35.1624 33.5864 39.1686 39.6617C43.2243 45.811 47.2825 51.9587 51.3432 58.1048L56.2301 65.5076L56.4776 65.3447C58.6674 63.9208 60.9843 61.8937 62.8183 59.782C66.7217 55.2993 69.2376 49.8335 70.0823 44.0054C70.3294 42.3103 70.3597 41.8095 70.3597 39.5108C70.3597 37.2121 70.3294 36.7115 70.0823 35.0161C68.4051 23.4266 60.1576 13.6892 48.9723 10.0814C46.9994 9.44171 44.9001 9.00135 42.5471 8.73596C41.9678 8.67548 37.9799 8.60944 37.4793 8.65758M50.1125 27.3241C50.402 27.4688 50.6375 27.7463 50.722 28.0357C50.7702 28.1928 50.7822 31.5472 50.7701 39.1065L50.7519 49.9542L48.8396 47.0219L46.9211 44.09V36.2048C46.9211 31.1068 46.9451 28.2409 46.9812 28.1021C47.0778 27.7645 47.2889 27.4991 47.5787 27.342C47.8259 27.2155 47.9166 27.2031 48.8637 27.2031C49.7567 27.2031 49.9135 27.2155 50.1125 27.3241Z" fill="black"/>
</g>
<defs>
<clipPath id="clip0_111_73">
<rect width="79" height="79" fill="white"/>
</clipPath>
</defs>
</svg>
