<svg width="79" height="79" viewBox="0 0 79 79" fill="none" xmlns="http://www.w3.org/2000/svg">
<g clip-path="url(#clip0_111_123)">
<path d="M60.4844 0H18.5156C8.28973 0 0 8.28973 0 18.5156V60.4844C0 70.7103 8.28973 79 18.5156 79H60.4844C70.7103 79 79 70.7103 79 60.4844V18.5156C79 8.28973 70.7103 0 60.4844 0Z" fill="#242938"/>
<path d="M36.9936 9.60218C38.5116 8.73349 40.4884 8.72948 42.0049 9.60218C49.6339 13.9132 57.2654 18.2172 64.8932 22.5307C66.3282 23.3389 67.2876 24.9356 67.2731 26.5887V52.5245C67.2839 54.2461 66.2295 55.881 64.7158 56.6707C57.1117 60.958 49.5114 65.2503 41.9086 69.5375C40.3597 70.4232 38.3431 70.355 36.8421 69.3965C34.5625 68.0751 32.2789 66.7599 29.999 65.4397C29.533 65.162 29.0078 64.941 28.6789 64.4893C28.9699 64.0973 29.4898 64.0486 29.9123 63.8773C30.8637 63.5746 31.7379 63.0889 32.6119 62.6176C32.8331 62.4664 33.1028 62.5244 33.3149 62.6596C35.2642 63.7773 37.1967 64.9278 39.1525 66.0347C39.5697 66.2757 39.9922 65.9557 40.3489 65.757C47.8107 61.5394 55.2818 57.3382 62.7427 53.1194C63.0191 52.9864 63.1719 52.693 63.1494 52.3902C63.1546 43.8345 63.1506 35.2775 63.1522 26.7214C63.1836 26.3783 62.9849 26.0623 62.6741 25.9215C55.0966 21.654 47.5225 17.3803 39.9462 13.1118C39.815 13.0216 39.6595 12.9732 39.5002 12.973C39.341 12.9727 39.1853 13.0205 39.0538 13.1103C31.4772 17.3803 23.9049 21.6583 16.3283 25.9252C16.0188 26.0663 15.8111 26.377 15.8478 26.7214C15.8494 35.2775 15.8478 43.8345 15.8478 52.3915C15.8346 52.5393 15.867 52.6876 15.9408 52.8164C16.0145 52.9452 16.126 53.0483 16.2601 53.1117C18.2817 54.2581 20.3061 55.3965 22.3292 56.5393C23.4692 57.1524 24.8683 57.5172 26.1243 57.0472C27.2322 56.6497 28.0089 55.5188 27.9879 54.3424C27.9984 45.8366 27.9827 37.3296 27.9956 28.8248C27.9679 28.4474 28.3261 28.1354 28.6934 28.1712C29.6648 28.1644 30.6375 28.1579 31.6089 28.1737C32.0144 28.1644 32.2934 28.5711 32.2434 28.9513C32.2394 37.5111 32.2539 46.0709 32.2369 54.6303C32.2394 56.9117 31.3022 59.3941 29.192 60.5103C26.5928 61.8566 23.3797 61.5712 20.8116 60.28C18.5885 59.1703 16.4666 57.8607 14.283 56.672C12.7653 55.8866 11.7161 54.2452 11.7269 52.5248V26.5887C11.7108 24.9013 12.7088 23.2757 14.1879 22.4792C21.7907 18.1888 29.3923 13.8947 36.9936 9.60218Z" fill="#81CD39"/>
<path d="M43.6265 27.5682C46.9424 27.3547 50.4921 27.4417 53.4759 29.0754C55.7863 30.3271 57.067 32.9544 57.1077 35.521C57.0432 35.8669 56.6813 36.058 56.3508 36.0342C55.3889 36.033 54.4264 36.0475 53.4645 36.0277C53.0562 36.0435 52.8192 35.6673 52.768 35.3065C52.4915 34.0783 51.8215 32.8622 50.6658 32.2697C48.8914 31.3815 46.8343 31.4263 44.8995 31.4448C43.487 31.5195 41.9681 31.642 40.7714 32.4724C39.8527 33.1016 39.5738 34.3718 39.9015 35.3948C40.2107 36.1292 41.0584 36.3663 41.7524 36.5847C45.7484 37.6299 49.9829 37.5256 53.9027 38.901C55.5256 39.4618 57.113 40.552 57.6685 42.2511C58.3952 44.5286 58.0767 47.2504 56.4563 49.0785C55.1423 50.5829 53.2287 51.4019 51.3201 51.8466C48.781 52.4128 46.1459 52.4273 43.5673 52.1758C41.1426 51.8993 38.6193 51.2624 36.7477 49.6105C35.147 48.2206 34.3653 46.0549 34.4428 43.9651C34.4613 43.612 34.8128 43.3658 35.151 43.3948C36.1197 43.3871 37.0887 43.3843 38.0573 43.3963C38.4446 43.3686 38.7313 43.7031 38.7514 44.0678C38.9297 45.2377 39.3695 46.4659 40.39 47.1593C42.3588 48.4298 44.8297 48.3428 47.0843 48.3783C48.9522 48.2956 51.0491 48.2706 52.5733 47.0359C53.3775 46.3317 53.6157 45.1535 53.3984 44.14C53.163 43.2843 52.2678 42.8856 51.4991 42.6248C47.5543 41.3772 43.2723 41.8299 39.3658 40.4187C37.7796 39.8583 36.2459 38.7986 35.6367 37.1692C34.7865 34.8631 35.176 32.0104 36.9661 30.2444C38.7115 28.4869 41.2309 27.8102 43.6265 27.5682Z" fill="#81CD39"/>
</g>
<defs>
<clipPath id="clip0_111_123">
<rect width="79" height="79" fill="white"/>
</clipPath>
</defs>
</svg>
