<svg width="79" height="79" viewBox="0 0 79 79" fill="none" xmlns="http://www.w3.org/2000/svg">
<path d="M60.4844 0H18.5156C8.28973 0 0 8.28973 0 18.5156V60.4844C0 70.7103 8.28973 79 18.5156 79H60.4844C70.7103 79 79 70.7103 79 60.4844V18.5156C79 8.28973 70.7103 0 60.4844 0Z" fill="#007ACC"/>
<path d="M17.4698 39.762L17.4448 42.9973H27.7271V72.2146H35.0004V42.9973H45.2827V39.8246C45.2827 38.069 45.2454 36.602 45.1951 36.5643C45.1574 36.5143 38.9001 36.489 31.3136 36.5017L17.5075 36.5393L17.4698 39.762ZM63.7453 36.4474C65.7514 36.9492 67.2814 37.8394 68.6858 39.2939C69.4132 40.0715 70.4914 41.4886 70.5794 41.8271C70.6044 41.9274 67.1685 44.2347 65.087 45.5262C65.0117 45.5765 64.7105 45.2503 64.372 44.7489C63.3564 43.2692 62.2906 42.6294 60.6603 42.5168C58.2653 42.3536 56.7229 43.6077 56.7356 45.7018C56.7356 46.3162 56.8232 46.6797 57.0741 47.1815C57.6005 48.2724 58.5788 48.9244 61.6511 50.2536C67.3064 52.6865 69.7264 54.2915 71.2314 56.5736C72.9117 59.1191 73.2879 63.1821 72.1467 66.2041C70.8929 69.4894 67.7829 71.7215 63.4064 72.4615C62.0523 72.6997 58.842 72.6621 57.3876 72.3989C54.215 71.8344 51.2056 70.2671 49.3497 68.2106C48.6223 67.408 47.2053 65.3139 47.2932 65.1633C47.3306 65.1133 47.6567 64.9127 48.0203 64.6994C48.3714 64.4989 49.7009 63.7339 50.9547 63.0065L53.2244 61.6897L53.7009 62.3921C54.3656 63.4077 55.82 64.7997 56.6979 65.2636C59.2182 66.593 62.6794 66.4047 64.3847 64.875C65.112 64.2103 65.4129 63.5206 65.4129 62.505C65.4129 61.5894 65.3 61.1883 64.8235 60.4986C64.2091 59.6209 62.9553 58.8809 59.3938 57.3386C55.3185 55.583 53.5629 54.4921 51.9579 52.7615C51.03 51.7586 50.152 50.1533 49.7885 48.8115C49.4876 47.6956 49.4123 44.8991 49.6506 43.7706C50.4906 39.8333 53.4626 37.0871 57.7511 36.2718C59.1432 36.0086 62.3782 36.1089 63.7453 36.4474Z" fill="white"/>
</svg>
