<svg width="79" height="79" viewBox="0 0 79 79" fill="none" xmlns="http://www.w3.org/2000/svg">
<path d="M60.4844 0H18.5156C8.28973 0 0 8.28973 0 18.5156V60.4844C0 70.7103 8.28973 79 18.5156 79H60.4844C70.7103 79 79 70.7103 79 60.4844V18.5156C79 8.28973 70.7103 0 60.4844 0Z" fill="#242938"/>
<path d="M39.5003 45.3482C42.6801 45.3482 45.2574 42.7705 45.2574 39.591C45.2574 36.4116 42.6801 33.8339 39.5003 33.8339C36.3206 33.8339 33.7432 36.4116 33.7432 39.591C33.7432 42.7705 36.3209 45.3482 39.5003 45.3482Z" fill="#00D8FF"/>
<path d="M39.5006 27.8854C47.2303 27.8854 54.4109 28.9945 59.8252 30.8587C66.3486 33.1044 70.3594 36.5085 70.3594 39.591C70.3594 42.8032 66.1088 46.4196 59.1034 48.7405C53.8073 50.4952 46.8381 51.4111 39.5006 51.4111C31.9777 51.4111 24.8538 50.5513 19.4979 48.7211C12.7218 46.4051 8.64062 42.7421 8.64062 39.591C8.64062 36.5335 12.4703 33.1556 18.902 30.9134C24.3363 29.0186 31.6941 27.8854 39.4994 27.8854H39.5006Z" stroke="#00D8FF" stroke-width="0.556938"/>
<path d="M29.3105 33.7719C33.1723 27.076 37.72 21.4096 42.0397 17.6509C47.2439 13.1217 52.1968 11.3479 54.8667 12.8875C57.6493 14.4922 58.6587 19.9814 57.1698 27.2093C56.045 32.6736 53.3559 39.1683 49.6901 45.5247C45.9317 52.0415 41.6284 57.7832 37.3676 61.5073C31.9762 66.2202 26.7637 67.9258 24.0342 66.3517C21.3855 64.8253 20.3727 59.8196 21.6435 53.1278C22.7171 47.4734 25.4115 40.5335 29.3093 33.7719H29.3105Z" stroke="#00D8FF" stroke-width="0.556938"/>
<path d="M29.3201 45.5416C25.4476 38.8532 22.8109 32.082 21.7105 26.4625C20.3857 19.6917 21.3223 14.515 23.9901 12.9708C26.7702 11.3612 32.0296 13.2282 37.5478 18.128C41.72 21.8324 46.0042 27.4047 49.6805 33.7549C53.4497 40.2656 56.2746 46.8618 57.3735 52.4128C58.764 59.4376 57.6385 64.805 54.9115 66.3834C52.2656 67.9153 47.4235 66.2936 42.2604 61.8505C37.8981 58.0968 33.2309 52.2968 29.3201 45.5416Z" stroke="#00D8FF" stroke-width="0.556938"/>
</svg>
