<svg width="79" height="79" viewBox="0 0 79 79" fill="none" xmlns="http://www.w3.org/2000/svg">
<g clip-path="url(#clip0_111_17)">
<path d="M60.4844 0H18.5156C8.28973 0 0 8.28973 0 18.5156V60.4844C0 70.7103 8.28973 79 18.5156 79H60.4844C70.7103 79 79 70.7103 79 60.4844V18.5156C79 8.28973 70.7103 0 60.4844 0Z" fill="#E14E1D"/>
<path d="M14.8125 11.7266L17.4695 41.5346H51.6339L50.4875 54.3196L39.4873 57.2938L28.5079 54.3239L27.7737 46.1147H17.8799L19.2948 61.9397L39.4852 67.5475L59.7012 61.9397L62.4115 31.6787H26.4847L25.5827 21.5846H63.3046L64.1875 11.7266H14.8125Z" fill="white"/>
<path d="M39.5 11.7266H14.8125L17.4695 41.5346H39.5V31.6787H26.4847L25.5827 21.5846H39.5V11.7266ZM39.5 57.2895L39.4873 57.2938L28.5079 54.3239L27.7737 46.1147H17.8799L19.2948 61.9397L39.4852 67.5475L39.5003 67.5431L39.5 57.2895Z" fill="#EBEBEB"/>
</g>
<defs>
<clipPath id="clip0_111_17">
<rect width="79" height="79" fill="white"/>
</clipPath>
</defs>
</svg>
