<svg width="79" height="79" viewBox="0 0 79 79" fill="none" xmlns="http://www.w3.org/2000/svg">
<path d="M60.4844 0H18.5156C8.28973 0 0 8.28973 0 18.5156V60.4844C0 70.7103 8.28973 79 18.5156 79H60.4844C70.7103 79 79 70.7103 79 60.4844V18.5156C79 8.28973 70.7103 0 60.4844 0Z" fill="#F0DB4F"/>
<path d="M20.7721 66.0181L26.8174 62.3594C27.9839 64.4273 29.0448 66.177 31.5898 66.177C34.0293 66.177 35.5673 65.2229 35.5673 61.5111V36.2687H42.9914V61.616C42.9914 69.3053 38.4841 72.8053 31.908 72.8053C25.9691 72.8053 22.5218 69.7296 20.7718 66.0175M47.0238 65.2226L53.0686 61.7228C54.66 64.3215 56.7282 66.2304 60.3869 66.2304C63.4632 66.2304 65.4246 64.6924 65.4246 62.5711C65.4246 60.0258 63.4095 59.1241 60.0156 57.6398L58.16 56.8439C52.8038 54.564 49.2506 51.7003 49.2506 45.6549C49.2506 40.0867 53.4932 35.8441 60.1221 35.8441C64.8417 35.8441 68.2356 37.4883 70.6747 41.7836L64.8945 45.4957C63.6215 43.2155 62.2434 42.3141 60.1221 42.3141C57.9477 42.3141 56.5689 43.6929 56.5689 45.4957C56.5689 47.7228 57.9477 48.6245 61.1293 50.0036L62.9852 50.7989C69.2956 53.5037 72.8488 56.2607 72.8488 62.465C72.8488 69.1472 67.599 72.8059 60.5461 72.8059C53.6524 72.8059 49.1979 69.5182 47.0238 65.2226Z" fill="#323330"/>
</svg>
