<svg width="79" height="79" viewBox="0 0 79 79" fill="none" xmlns="http://www.w3.org/2000/svg">
<g clip-path="url(#clip0_111_128)">
<path d="M60.4844 0H18.5156C8.28973 0 0 8.28973 0 18.5156V60.4844C0 70.7103 8.28973 79 18.5156 79H60.4844C70.7103 79 79 70.7103 79 60.4844V18.5156C79 8.28973 70.7103 0 60.4844 0Z" fill="#242938"/>
<path d="M10.4045 30.9236C10.4045 30.9236 8.94336 29.8703 10.6968 28.4641L14.7813 24.8116C14.7813 24.8116 15.9503 23.5818 17.1859 24.6533L54.8803 53.1917V66.8766C54.8803 66.8766 54.8621 69.0257 52.1042 68.788L10.4045 30.9236Z" fill="#2489CA"/>
<path d="M20.1203 39.7444L10.4046 48.5773C10.4046 48.5773 9.40594 49.32 10.4046 50.6473L14.9153 54.7501C14.9153 54.7501 15.9867 55.9008 17.5695 54.5918L27.8697 46.7816L20.1203 39.7444Z" fill="#1070B3"/>
<path d="M37.1775 39.8175L54.996 26.2116L54.8803 12.5999C54.8803 12.5999 54.1193 9.62905 51.5808 11.1754L27.8697 32.7557L37.1775 39.8175Z" fill="#0877B9"/>
<path d="M52.1042 68.8066C53.1393 69.8657 54.3934 69.5188 54.3934 69.5188L68.2792 62.6763C70.0567 61.4648 69.807 59.9613 69.807 59.9613V19.1013C69.807 17.3053 67.9684 16.6848 67.9684 16.6848L55.9336 10.8832C53.3038 9.25782 51.5809 11.1754 51.5809 11.1754C51.5809 11.1754 53.7966 9.58061 54.8804 12.5999V66.627C54.8818 66.9954 54.8007 67.3595 54.643 67.6925C54.3264 68.3316 53.6386 68.9281 51.9888 68.6785L52.1042 68.8066Z" fill="#3C99D4"/>
</g>
<defs>
<clipPath id="clip0_111_128">
<rect width="79" height="79" fill="white"/>
</clipPath>
</defs>
</svg>
